<svg version="1" xmlns="http://www.w3.org/2000/svg" width="1066.667" height="1066.667" viewBox="0 0 800.000000 800.000000"><path d="M556.2 74.9c-.6.4-1 87.6-1 220.6 0 121-.1 220.6-.1 221.2-.1 1-8.6 1.3-38.9 1.3h-38.8l.1 51.8v51.7l90.8.1 90.7.2V74.3h-51c-28 0-51.3.3-51.8.6z"/><path d="M347.5 347.9v221.6l-38.9.5-38.9.5v50c.1 27.5.2 50.7.2 51.6.1 1.4 8.8 1.6 90.8 1.5l90.7-.1V230h38.8c36.3 0 38.8-.1 38.9-1.8.1-2.2.1-98.2 0-100.2-.1-1.4-9.7-1.6-90.8-1.6h-90.8v221.5zM685 178.2V230h107.8v-51.8l.1-51.8-54-.1H685v51.9z"/><path d="M140 180.9c-.1 3.6-.1 531.1 0 538.7v6.1H243.7l.1-220.1c0-121.1.1-220.9.1-221.9.1-1.6 2.6-1.7 38.9-1.7h38.9l-.1-51.8-.1-51.7-90.7-.1-90.8-.2v2.7zM6.5 571.2c-.2.7-.3 24-.2 51.8l.2 50.5 53.8.1H114V570H60.5c-42 0-53.7.3-54 1.2z"/></svg>